<?xml version="1.0" encoding="utf-8"?>
<!-- Generator: Adobe Illustrator 22.1.0, SVG Export Plug-In . SVG Version: 6.00 Build 0)  -->
<svg version="1.1" id="Layer_1" xmlns="http://www.w3.org/2000/svg" xmlns:xlink="http://www.w3.org/1999/xlink" x="0px" y="0px"
	 viewBox="0 0 512 512" style="enable-background:new 0 0 512 512;" xml:space="preserve">
<style type="text/css">
	.st0{fill:#FC9E22;}
</style>
<path class="st0" d="M196,233.6c3.6,0,7.2-1.5,9.7-4c2.6-2.6,4-6.1,4-9.7c0-3.6-1.5-7.2-4-9.7c-2.6-2.6-6.1-4-9.7-4s-7.2,1.5-9.7,4
	c-2.6,2.6-4,6.1-4,9.7c0,3.6,1.5,7.2,4,9.7C188.8,232.1,192.4,233.6,196,233.6z"/>
<path class="st0" d="M314,233.6c3.6,0,7.2-1.5,9.7-4c2.6-2.6,4-6.1,4-9.7c0-3.6-1.5-7.2-4-9.7c-2.6-2.6-6.1-4-9.7-4
	c-3.6,0-7.2,1.5-9.7,4c-2.6,2.6-4,6.1-4,9.7c0,3.6,1.5,7.2,4,9.7C306.8,232.1,310.4,233.6,314,233.6z"/>
<path class="st0" d="M328.7,279.8c-7.6,0-13.8,6.2-13.8,13.8c0,12.7-10.4,23.1-23.1,23.1c-10,0-18.5-6.4-21.7-15.2
	c1.7-1.6,3.2-3.6,4.5-5.9l7.4-12.8c4.3-7.5,4.6-15.5,0.8-22.1c-3.8-6.6-10.9-10.4-19.6-10.4h-14.8c-8.6,0-15.8,3.8-19.6,10.4
	c-3.8,6.6-3.5,14.7,0.8,22.1l7.4,12.8c0.9,1.6,2,3.1,3.2,4.4c-2.8,9.6-11.7,16.7-22.2,16.7c-12.7,0-23.1-10.4-23.1-23.1
	c0-7.6-6.2-13.8-13.8-13.8c-7.6,0-13.8,6.2-13.8,13.8c0,27.9,22.7,50.6,50.6,50.6c14.5,0,27.6-6.1,36.9-16c9.2,9.8,22.4,16,36.9,16
	c27.9,0,50.6-22.7,50.6-50.6C342.5,285.9,336.3,279.8,328.7,279.8z"/>
<path class="st0" d="M481.5,325l-43.2-17.7h38c7.6,0,13.8-6.2,13.8-13.8c0-7.6-6.2-13.8-13.8-13.8h-38l43.2-17.7
	c7-2.9,10.4-10.9,7.5-18c-2.9-7-10.9-10.4-18-7.5L416.2,259c0-0.8,0-1.6,0-2.4V109.2c0-5.1-2.8-9.7-7.3-12.1
	c-4.5-2.4-9.9-2.1-14.1,0.7l-44,29.3c-27.7-20.5-61.3-31.6-95.9-31.6s-68.2,11.2-95.9,31.6l-44-29.3c-4.2-2.8-9.7-3.1-14.1-0.7
	c-4.5,2.4-7.3,7.1-7.3,12.1v147.5c0,0.8,0,1.6,0,2.4L39,236.6c-7-2.9-15.1,0.5-18,7.5c-2.9,7,0.5,15.1,7.5,18l43.2,17.7h-38
	c-7.6,0-13.8,6.2-13.8,13.8c0,7.6,6.2,13.8,13.8,13.8h38L28.5,325c-7,2.9-10.4,10.9-7.5,18c2.2,5.3,7.3,8.6,12.7,8.5
	c1.7,0,3.5-0.3,5.2-1l68.7-28.2c25.2,56.3,81.7,95.6,147.3,95.6s122.1-39.3,147.3-95.6l68.7,28.2c1.7,0.7,3.5,1,5.2,1
	c5.4,0,10.6-3.2,12.7-8.5C491.8,336,488.5,327.9,481.5,325z M255,390.4c-54.1,0-100.7-32.2-121.8-78.5l13.7-5.6
	c5.2-2.1,8.5-7.2,8.5-12.7s-3.4-10.6-8.5-12.7L122,270.6c-0.5-4.6-0.7-9.2-0.7-13.9V134.9l30.9,20.6c5.1,3.4,11.8,3,16.5-0.9
	c24.1-20.4,54.7-31.6,86.3-31.6s62.2,11.2,86.3,31.6c4.7,4,11.4,4.3,16.5,0.9l30.9-20.6v121.8c0,4.7-0.2,9.4-0.7,13.9l-24.7,10.1
	c-1.9,0.7-3.6,1.9-5.1,3.4c-3.9,4.2-4.8,10.4-2.2,15.5c1.6,3.2,4.2,5.5,7.3,6.7l13.5,5.5C355.7,358.1,309.1,390.4,255,390.4z"/>
</svg>
