<?xml version="1.0" encoding="utf-8"?>
<!-- Generator: Adobe Illustrator 22.1.0, SVG Export Plug-In . SVG Version: 6.00 Build 0)  -->
<svg version="1.1" id="Layer_1" xmlns="http://www.w3.org/2000/svg" xmlns:xlink="http://www.w3.org/1999/xlink" x="0px" y="0px"
	 viewBox="0 0 512 512" style="enable-background:new 0 0 512 512;" xml:space="preserve">
<style type="text/css">
	.st0{fill:#0642FF;}
</style>
<path class="st0" d="M494.7,217.2l-113.4-136c-1.4-1.9-2.9-3.8-4.6-5.5c-0.5-0.5-1-1-1.5-1.5c-9.4-9.1-22.2-14.7-36.3-14.7H171.1
	c-14.1,0-26.9,5.6-36.4,14.7c-0.5,0.4-0.9,0.9-1.3,1.4c-1.7,1.8-3.3,3.6-4.7,5.6L15.3,217.2c-2.1,2.6-3.3,5.8-3.3,9.1
	c0,37.3,30.3,67.6,67.6,67.6c14.6,0,28.1-4.7,39.1-12.5v51.7c0,38.6,29.3,70.5,66.8,74.8c11.5,27.7,38.7,46.2,69.4,46.2
	s57.9-18.6,69.4-46.2c37.5-4.2,66.8-36.1,66.8-74.8v-51.7c11.1,7.9,24.6,12.5,39.1,12.5c37.3,0,67.6-30.3,67.6-67.6
	C498,223,496.8,219.7,494.7,217.2z M79.6,265.4c-20,0-36.5-15-38.8-34.3l78-93.5v88.7C118.8,247.9,101.2,265.4,79.6,265.4z
	 M255,425.6c-15.9,0-30.3-8-38.8-20.6c15.8-4.9,29.3-14.8,38.8-27.9c9.5,13.1,23,23,38.8,27.9C285.3,417.6,270.9,425.6,255,425.6z
	 M256.8,315.8c-0.7,1.2-1.3,2-1.8,2.5c-0.5-0.5-1.1-1.3-1.8-2.5l-15.3-26.4c-0.7-1.2-1.1-2.1-1.2-2.8c0.7-0.2,1.7-0.3,3-0.3h30.5
	c1.4,0,2.4,0.2,3,0.3c-0.2,0.7-0.5,1.6-1.2,2.8L256.8,315.8z M362.8,333.1c0,25.8-21,46.8-46.8,46.8c-22.5,0-41.4-16-45.8-37.3
	c4.3-2.9,8.2-7.1,11.3-12.4l15.3-26.4c6.3-10.9,6.9-22.4,1.7-31.5c-5.3-9.1-15.5-14.3-28.1-14.3h-30.5c-12.6,0-22.9,5.2-28.1,14.3
	c-5.3,9.1-4.6,20.6,1.7,31.5l15.3,26.4c3.1,5.3,6.9,9.5,11.3,12.4c-4.4,21.3-23.3,37.3-45.8,37.3c-25.8,0-46.8-21-46.8-46.8V111.9
	c0-4.9,1.5-9.4,4-13.2l3.3-4c4.3-4.1,10.1-6.7,16.6-6.7h167.8c6.4,0,12.3,2.6,16.6,6.7l3.3,3.9c2.5,3.8,4,8.4,4,13.3v0V333.1z
	 M430.4,265.4c-21.6,0-39.1-17.6-39.1-39.1v-88.7l78,93.5C466.9,250.4,450.3,265.4,430.4,265.4z"/>
<path class="st0" d="M194,181.6c-3.7,0-7.4,1.5-10.1,4.2c-2.7,2.6-4.2,6.3-4.2,10.1c0,3.7,1.5,7.4,4.2,10.1
	c2.7,2.6,6.3,4.2,10.1,4.2s7.4-1.5,10.1-4.2c2.6-2.7,4.2-6.3,4.2-10.1c0-3.8-1.5-7.4-4.2-10.1C201.4,183.1,197.7,181.6,194,181.6z"
	/>
<path class="st0" d="M316,181.6c-3.7,0-7.4,1.5-10.1,4.2c-2.6,2.6-4.2,6.3-4.2,10.1c0,3.7,1.5,7.4,4.2,10.1
	c2.6,2.6,6.3,4.2,10.1,4.2c3.7,0,7.4-1.5,10.1-4.2c2.7-2.7,4.2-6.3,4.2-10.1c0-3.8-1.5-7.4-4.2-10.1
	C323.4,183.1,319.8,181.6,316,181.6z"/>
</svg>
